<svg width="8" height="8" fill="none" xmlns="http://www.w3.org/2000/svg"><path d="M.784 7.014 0 6.23l3.514-3.514c.345-.355.663-.663.952-.924.299-.261.57-.495.812-.7-.84.168-1.769.252-2.786.252-.793 0-1.54-.056-2.24-.168L.364.084c.495.084.98.145 1.456.182.476.037.952.056 1.428.056.616 0 1.227-.028 1.834-.084A44.175 44.175 0 0 0 6.944 0l.07.07a44.176 44.176 0 0 0-.238 1.862 19.943 19.943 0 0 0-.084 1.834c0 .476.019.952.056 1.428.037.476.098.961.182 1.456l-1.092.112c-.112-.7-.168-1.447-.168-2.24 0-1.017.084-1.946.252-2.786-.205.243-.439.513-.7.812-.261.29-.57.607-.924.952L.784 7.014Z" fill="#E5C687"/></svg>