<svg width="26" height="26" fill="none" xmlns="http://www.w3.org/2000/svg"><path d="M.061 12.766a.325.325 0 00.003.384c.046.062 1.132 1.504 2.526 1.504h.014c.947-.006 1.742-.677 2.173-1.13a8.237 8.237 0 003.559 6.263c-.609.172-1.486.543-1.923 1.312-.692 1.218.04 2.88.072 2.95a.325.325 0 00.334.19c.076-.009 1.88-.23 2.572-1.448.436-.766.307-1.708.144-2.319a8.188 8.188 0 003.462.766 8.187 8.187 0 003.348-.714c-.158.612-.286 1.573.168 2.346.708 1.209 2.515 1.405 2.591 1.413a.325.325 0 00.331-.194c.03-.07.741-1.743.032-2.952-.44-.751-1.305-1.11-1.915-1.278a8.24 8.24 0 003.655-6.207c.43.446 1.24 1.12 2.192 1.12h.014c1.401-.01 2.474-1.476 2.52-1.538a.325.325 0 00-.003-.384c-.046-.062-1.132-1.504-2.526-1.504h-.014c-.947.007-1.742.677-2.174 1.13a8.238 8.238 0 00-3.558-6.263c.609-.172 1.486-.543 1.923-1.312.692-1.218-.04-2.88-.072-2.95a.323.323 0 00-.334-.19c-.076.009-1.88.23-2.572 1.448-.436.766-.307 1.708-.144 2.319a8.186 8.186 0 00-3.462-.766 8.187 8.187 0 00-3.348.714c.158-.612.286-1.573-.168-2.346-.709-1.21-2.515-1.405-2.591-1.413a.328.328 0 00-.331.194c-.03.07-.741 1.743-.032 2.952.44.751 1.305 1.11 1.915 1.278a8.24 8.24 0 00-3.655 6.207c-.431-.446-1.24-1.12-2.192-1.12H2.58c-1.401.01-2.475 1.476-2.52 1.538zm8.765 9.704c-.4.704-1.378.985-1.837 1.08-.153-.442-.413-1.423-.01-2.13.4-.704 1.377-.985 1.836-1.08.153.442.413 1.423.011 2.13zm10.08-1.004c.41.698.164 1.686.018 2.131-.46-.088-1.44-.354-1.85-1.056-.41-.698-.165-1.685-.018-2.13.46.088 1.44.354 1.85 1.055zm4.488-9.47h.01c.805 0 1.533.703 1.845 1.05-.307.355-1.027 1.07-1.84 1.075h-.01c-.806 0-1.534-.702-1.845-1.05.307-.354 1.027-1.07 1.84-1.075zM17.168 3.53c.4-.704 1.378-.985 1.837-1.08.153.442.413 1.423.01 2.13-.4.704-1.377.985-1.836 1.08-.153-.442-.413-1.423-.011-2.13zM7.088 4.534c-.41-.698-.164-1.686-.018-2.131.46.088 1.44.354 1.85 1.056.41.698.164 1.685.018 2.13-.46-.088-1.44-.354-1.85-1.055zm-1.28 6.043h3.074a9.279 9.279 0 00.001 4.851H5.81a7.552 7.552 0 01-.002-4.85zM20.585 13a7.55 7.55 0 01-.401 2.428H17.11a9.2 9.2 0 000-4.85h3.076A7.55 7.55 0 0120.585 13zm-3.8 0c0 .875-.138 1.685-.358 2.428h-3.105v-4.85h3.105c.22.738.358 1.546.358 2.422zm-7 3.078h2.887v4.141c-.743-.67-2.11-2.105-2.886-4.14zm3.537 4.142v-4.142h2.887c-.775 2.036-2.144 3.47-2.887 4.142zm0-10.293v-4.07c.741.65 2.11 2.051 2.886 4.07h-2.886zm-.65-4.146v4.146H9.784c.775-2.038 2.144-3.475 2.888-4.146zm0 4.796v4.851H9.565A8.513 8.513 0 019.209 13c0-.872.135-1.682.354-2.423h3.109zm-6.608 5.501h3.019c.739 2.126 2.093 3.644 2.951 4.447a7.606 7.606 0 01-5.97-4.447zm7.896 4.447c.858-.803 2.212-2.32 2.951-4.447h3.019a7.606 7.606 0 01-5.97 4.447zm5.972-10.598H16.91c-.767-2.186-2.193-3.705-3.043-4.463a7.605 7.605 0 016.066 4.463zm-7.898-4.451c-.859.802-2.215 2.322-2.953 4.451H6.06a7.606 7.606 0 015.973-4.451zm-9.449 6.403h.01c.805 0 1.533.702 1.845 1.05-.307.354-1.027 1.07-1.84 1.075-.81.016-1.542-.701-1.855-1.05.307-.354 1.027-1.07 1.84-1.075z" fill="#E5C687"/><path d="M12.672.325v2.3a.325.325 0 10.65 0v-2.3a.325.325 0 10-.65 0zM1.736 6.5a.325.325 0 00.119.444l1.991 1.15a.324.324 0 00.444-.12.325.325 0 00-.119-.444L2.18 6.38a.325.325 0 00-.444.12zm2.11 11.407l-1.991 1.15a.325.325 0 00.325.562l1.991-1.15a.325.325 0 00-.325-.562zm8.826 5.469v2.299a.325.325 0 10.65 0v-2.3a.325.325 0 10-.65 0zm9.474-5.469a.325.325 0 00-.325.563l1.99 1.15a.323.323 0 00.445-.12.325.325 0 00-.12-.444l-1.99-1.15zm-.162-9.77a.324.324 0 00.162-.043l1.99-1.15a.325.325 0 00-.324-.563l-1.991 1.15a.325.325 0 00.163.606z" fill="#E5C687"/></svg>